<?xml version="1.0" encoding="utf-8"?>
<!-- Generator: Adobe Illustrator 14.0.0, SVG Export Plug-In . SVG Version: 6.00 Build 43363)  -->
<!DOCTYPE svg PUBLIC "-//W3C//DTD SVG 1.0//EN" "http://www.w3.org/TR/2001/REC-SVG-20010904/DTD/svg10.dtd">
<svg version="1.0" id="Layer_1" xmlns="http://www.w3.org/2000/svg" xmlns:xlink="http://www.w3.org/1999/xlink" x="0px" y="0px"
	 width="320.798px" height="111.684px" viewBox="0 0 320.798 111.684" enable-background="new 0 0 320.798 111.684"
	 xml:space="preserve">
<g>
	<g>
		<path fill="#820024" d="M47.146,37.581c-0.971-2.961-3.059-5.049-6.36-5.049c-4.467,0-7.186,4.175-7.186,12.381
			c-0.098,8.205,2.33,12.381,7.38,12.381c3.01,0,4.855-1.068,6.846-5.194l6.215,1.65c-2.088,6.068-6.652,9.176-13.061,9.176
			c-8.934,0-14.081-6.554-14.081-18.013s5.147-18.013,14.081-18.013c6.7,0,10.584,3.01,12.235,9.225L47.146,37.581z"/>
		<path fill="#820024" d="M56.855,32.532v-5.632h6.021v5.632H56.855z M62.876,62.44h-6.021V37.192h6.021V62.44z"/>
		<path fill="#820024" d="M68.799,37.192v-8.351h6.021v8.351h4.952v4.855H74.82v14.275c0,1.359,0.68,1.748,2.185,1.748
			c0.922,0,1.893-0.292,2.767-0.486v4.953c-1.65,0.194-3.107,0.388-4.758,0.388c-4.467,0-6.215-2.233-6.215-5.826V42.048h-3.496
			v-4.855H68.799z"/>
		<path fill="#820024" d="M80.985,66.518c0.923,0.195,1.651,0.195,2.525,0.195c2.088,0,3.253-0.583,3.981-1.991
			c0.583-1.214,0.971-1.942,0.971-2.962c0-0.922-0.486-1.99-0.777-3.01l-6.749-21.558h6.069l4.176,15.538h0.097L95.6,37.192h6.021
			l-7.962,25.296c-2.67,7.234-4.807,9.177-9.759,9.177c-1.457,0-2.185-0.098-2.914-0.194V66.518z"/>
		<path fill="#820024" d="M124.537,27.385h6.701v21.946c0,10.245-6.312,13.594-13.45,13.594c-7.137,0-13.449-3.35-13.449-13.594
			V27.385h6.7v22.238c0,5.68,2.234,7.671,6.749,7.671c4.516,0,6.749-1.991,6.749-7.671V27.385z"/>
	</g>
	<g>
		<path fill="#820024" d="M140.282,37.192v3.399h0.097c1.991-2.233,4.613-3.884,7.478-3.884c3.738,0,7.283,1.942,7.283,7.38V62.44
			h-3.496V44.184c0-3.35-1.603-4.467-4.127-4.467c-2.622,0-5.632,2.137-7.234,3.836V62.44h-3.496V37.192H140.282z"/>
		<path fill="#820024" d="M165.14,26.899v4.175h-3.496v-4.175H165.14z M161.644,37.192h3.496V62.44h-3.496V37.192z"/>
		<path fill="#820024" d="M181.357,62.44h-4.661l-7.769-25.248h3.545l6.408,20.878h0.098l6.409-20.878h3.544L181.357,62.44z"/>
		<path fill="#820024" d="M210.584,57.051c-1.65,2.864-3.981,5.874-9.71,5.874c-5.632,0-10.974-3.884-10.974-13.109
			c0-8.157,4.079-13.109,10.294-13.109c5.243,0,9.613,3.399,9.613,11.458v2.331h-16.41c0,5.535,3.301,9.419,7.477,9.419
			c3.106,0,5.535-1.651,6.991-4.273L210.584,57.051z M206.312,47.486c0-4.662-2.232-7.769-6.021-7.769
			c-4.224,0-6.506,3.107-6.798,7.769H206.312z"/>
		<path fill="#820024" d="M214.275,37.192h3.496v5.001h0.097c1.942-3.447,4.03-5.389,8.205-5.389V40.3
			c-4.369,0.098-6.651,2.962-8.302,8.157V62.44h-3.496V37.192z"/>
		<path fill="#820024" d="M230.2,56.031c1.65,2.379,4.079,3.884,7.233,3.884c3.788,0,5.438-2.04,5.438-4.176
			c0-6.409-14.954-3.01-14.663-12.235c0.146-4.371,3.496-6.846,8.351-6.798c3.303,0.048,6.944,1.846,8.643,4.418l-2.428,2.136
			c-1.94-2.379-3.786-3.544-6.506-3.544c-2.961,0-4.563,1.505-4.563,3.738c0,5.487,14.662,2.67,14.662,12.09
			c0,4.904-4.271,7.379-8.836,7.379c-3.933,0-7.769-1.699-10.099-4.806L230.2,56.031z"/>
		<path fill="#820024" d="M254.28,26.899v4.175h-3.495v-4.175H254.28z M250.785,37.192h3.495V62.44h-3.495V37.192z"/>
		<path fill="#820024" d="M262.244,37.192v-8.302h3.496v8.302h5.825v3.011h-5.825v17.964c0,1.165,0.825,1.748,2.864,1.748
			c1.164,0,2.186-0.098,3.107-0.243v2.865c-0.631,0.194-2.039,0.388-4.079,0.388c-3.786,0-5.389-0.971-5.389-4.175V40.204h-4.128
			v-3.011H262.244z"/>
		<path fill="#820024" d="M293.899,37.192l-8.885,27.481c-1.845,5.633-5.194,7.089-8.496,7.089c-1.166,0-1.846-0.194-2.525-0.291
			v-2.865c0.485,0.049,1.117,0.146,1.894,0.146c2.137,0,5.39-0.485,6.604-6.02l-8.789-25.54h3.69l6.798,19.276h0.098l5.922-19.276
			H293.899z"/>
	</g>
	<g>
		<path fill="#B1B3B6" d="M106.848,80.15c0,2.899-1.625,5.844-5.14,5.844s-5.14-2.944-5.14-5.844s1.625-5.843,5.14-5.843
			S106.848,77.25,106.848,80.15z M101.708,75.515c-2.658,0-3.712,2.593-3.712,4.635c0,2.043,1.055,4.635,3.712,4.635
			c2.658,0,3.712-2.592,3.712-4.635C105.42,78.108,104.366,75.515,101.708,75.515z"/>
		<path fill="#B1B3B6" d="M109.901,85.664v-9.818h-2.218v-1.208h2.218v-2.351c0-1.889,0.769-2.746,2.658-2.746
			c0.417,0,0.857,0.153,1.252,0.242v1.055c-0.263-0.045-0.549-0.089-0.813-0.089c-1.801,0-1.845,0.901-1.779,2.482v1.406h2.504
			v1.208h-2.504v9.818H109.901z"/>
		<path fill="#B1B3B6" d="M126.2,85.994c-2.526,0-4.657-1.846-4.723-4.46h1.538c0.044,2.438,1.845,3.142,3.976,3.142
			c1.779,0,3.822-1.033,3.822-3.054c0-1.581-1.142-2.328-2.482-2.768c-2.57-0.856-6.48-1.669-6.48-5.096
			c0-2.769,2.548-4.283,5.052-4.283c2.087,0,4.811,0.725,5.162,3.777h-1.538c-0.044-1.954-1.823-2.46-3.449-2.46
			c-1.647,0-3.69,0.835-3.69,2.769c0,4.502,8.962,2.46,8.962,7.929C132.35,84.939,129.385,85.994,126.2,85.994z"/>
		<path fill="#B1B3B6" d="M135.908,80.458c0.044,2.351,1.121,4.327,3.822,4.327c1.56,0,2.855-1.12,3.185-2.636h1.384
			c-0.681,2.636-2.329,3.845-4.986,3.845c-3.295,0-4.833-2.834-4.833-5.844c0-2.987,1.647-5.843,4.92-5.843
			c3.69,0,5.03,2.701,5.03,6.15H135.908z M143.003,79.25c-0.153-2.131-1.295-3.734-3.58-3.734c-2.153,0-3.295,1.802-3.47,3.734
			H143.003z"/>
		<path fill="#B1B3B6" d="M153.261,77.888c-0.132-1.802-1.054-2.373-2.614-2.373c-1.384,0-2.526,0.417-2.702,1.911h-1.406
			c0.33-2.263,2.021-3.119,4.13-3.119c2.438,0,3.954,1.121,3.91,3.646v5.228c-0.022,0.856,0.066,1.735,0.11,2.482h-1.362
			l-0.044-1.626h-0.044l-0.066,0.154c-0.483,0.922-1.955,1.802-3.449,1.802c-2.043,0-3.668-1.253-3.668-3.405
			c0-1.494,0.9-2.636,2.218-3.185c1.472-0.638,3.383-0.418,4.986-0.506V77.888z M149.966,84.785c2.877,0,3.427-2.372,3.295-4.679
			c-1.867,0.066-5.777-0.285-5.777,2.482C147.484,84.082,148.626,84.785,149.966,84.785z"/>
		<path fill="#B1B3B6" d="M158.445,75.845h-2.196v-1.208h2.196v-2.351l1.318-0.571v2.922h2.504v1.208h-2.504v7.38
			c-0.022,1.011,0.505,1.56,1.515,1.56c0.396,0,0.791-0.021,1.142-0.132v1.143c-0.417,0.109-0.9,0.198-1.34,0.198
			c-2.79,0-2.636-1.78-2.636-3.273V75.845z"/>
		<path fill="#B1B3B6" d="M165.781,75.845h-2.197v-1.208h2.197v-2.351l1.318-0.571v2.922h2.504v1.208h-2.504v7.38
			c-0.022,1.011,0.505,1.56,1.516,1.56c0.396,0,0.791-0.021,1.142-0.132v1.143c-0.417,0.109-0.9,0.198-1.34,0.198
			c-2.79,0-2.636-1.78-2.636-3.273V75.845z"/>
		<path fill="#B1B3B6" d="M172.986,85.664h-1.318V69.804h1.318V85.664z"/>
		<path fill="#B1B3B6" d="M176.852,80.458c0.043,2.351,1.12,4.327,3.821,4.327c1.56,0,2.855-1.12,3.186-2.636h1.384
			c-0.681,2.636-2.329,3.845-4.986,3.845c-3.294,0-4.833-2.834-4.833-5.844c0-2.987,1.648-5.843,4.921-5.843
			c3.69,0,5.03,2.701,5.03,6.15H176.852z M183.946,79.25c-0.153-2.131-1.295-3.734-3.579-3.734c-2.152,0-3.295,1.802-3.472,3.734
			H183.946z"/>
	</g>
</g>
</svg>
